<svg width="487" height="455" viewBox="0 0 487 455" fill="none" xmlns="http://www.w3.org/2000/svg">
<g opacity="0.55">
<path d="M485.5 227.5C485.5 352.222 377.251 453.5 243.5 453.5C109.749 453.5 1.5 352.222 1.5 227.5C1.5 102.778 109.749 1.5 243.5 1.5C377.251 1.5 485.5 102.778 485.5 227.5Z" stroke="#F1E4FF" stroke-width="3"/>
<path fill-rule="evenodd" clip-rule="evenodd" d="M243.5 386.656C337.581 386.656 413.849 315.4 413.849 227.5C413.849 139.6 337.581 68.3438 243.5 68.3438C149.418 68.3438 73.1499 139.6 73.1499 227.5C73.1499 315.4 149.418 386.656 243.5 386.656ZM243.5 321.121C298.842 321.121 343.706 279.206 343.706 227.5C343.706 175.794 298.842 133.879 243.5 133.879C188.158 133.879 143.294 175.794 143.294 227.5C143.294 279.206 188.158 321.121 243.5 321.121Z" fill="#F1E4FF"/>
</g>
</svg>
